<svg xmlns="http://www.w3.org/2000/svg" viewBox="0 0 24 24" fill="white">
    <path d="M12 0C5.373 0 0 5.372 0 12c0 5.084 3.163 9.426 7.627 11.174-.105-.949-.2-2.403.042-3.438.218-.936 1.407-5.965 1.407-5.965s-.359-.719-.359-1.781c0-1.663.967-2.911 2.168-2.911 1.024 0 1.518.769 1.518 1.688 0 1.029-.653 2.567-.992 3.992-.285 1.193.6 2.165 1.775 2.165 2.128 0 3.768-2.245 3.768-5.487 0-2.861-2.063-4.869-5.008-4.869-3.41 0-5.409 2.562-5.409 5.199 0 1.033.394 2.143.886 2.746.097.119.112.224.083.345-.09.375-.293 1.199-.334 1.363-.053.225-.174.271-.402.163-1.495-.699-2.43-2.886-2.43-4.646 0-3.781 2.748-7.257 7.926-7.257 4.16 0 7.394 2.962 7.394 6.931 0 4.137-2.612 7.465-6.244 7.465-1.218 0-2.363-.633-2.756-1.383l-.75 2.854c-.27 1.045-1.002 2.35-1.492 3.146C9.57 23.812 10.763 24 12 24c6.627 0 12-5.373 12-12 0-6.628-5.373-12-12-12z"/>
</svg>